<svg width="186" height="32" viewBox="0 0 186 32" fill="none" xmlns="http://www.w3.org/2000/svg">
<g clip-path="url(#clip0_239_32)">
<path d="M169.803 31.973L173.603 23.707L166.817 8.242H172.355L176.24 18.092L179.864 8.242H185.344L175.254 31.973H169.803ZM133.574 23.52C132.354 22.8655 131.351 21.8695 130.689 20.654C129.968 19.3092 129.609 17.801 129.645 16.276C129.606 14.7479 129.961 13.2355 130.675 11.884C131.335 10.671 132.338 9.6794 133.559 9.033C134.865 8.35376 136.32 8.01206 137.793 8.039C139.689 7.97584 141.547 8.58268 143.041 9.753C144.479 10.9411 145.429 12.6176 145.709 14.462H140.461C140.34 13.8286 140.001 13.2577 139.503 12.849C138.979 12.4516 138.334 12.248 137.677 12.273C137.263 12.265 136.853 12.3537 136.48 12.532C136.107 12.7103 135.78 12.9733 135.527 13.3C134.909 14.1662 134.612 15.2199 134.686 16.281C134.612 17.3421 134.909 18.3958 135.527 19.262C135.781 19.5871 136.108 19.8483 136.481 20.0251C136.854 20.2018 137.264 20.2891 137.677 20.28C138.334 20.305 138.979 20.1014 139.503 19.704C140.001 19.2953 140.34 18.7244 140.461 18.091H145.709C145.429 19.9354 144.479 21.6119 143.041 22.8C141.547 23.9703 139.689 24.5772 137.793 24.514C136.325 24.5421 134.874 24.2002 133.574 23.52ZM93.8796 23.52C92.7935 22.8205 91.9288 21.8265 91.3866 20.654C90.7509 19.2838 90.4382 17.786 90.4726 16.276C90.4352 14.7612 90.748 13.2582 91.3866 11.884C91.9321 10.7176 92.7963 9.72921 93.8796 9.033C94.9531 8.36482 96.1962 8.01975 97.4606 8.039C98.5817 8.00777 99.6885 8.29747 100.651 8.874C101.522 9.40931 102.202 10.2058 102.594 11.15V3H107.552V24.312H102.594V21.4C102.202 22.3437 101.522 23.1398 100.652 23.675C99.6895 24.2515 98.5827 24.5412 97.4616 24.51C96.1976 24.5304 94.9535 24.1868 93.8796 23.52ZM76.0336 23.52C74.777 22.8755 73.7347 21.8798 73.0336 20.654C72.2861 19.3182 71.9107 17.8063 71.9466 16.276C71.9111 14.7464 72.2864 13.2352 73.0336 11.9C73.7347 10.6742 74.777 9.67845 76.0336 9.034C77.3715 8.35692 78.8542 8.01577 80.3536 8.04C81.8486 8.01433 83.3271 8.35563 84.6596 9.034C85.9105 9.68171 86.9477 10.6769 87.6466 11.9C88.3936 13.236 88.769 14.7477 88.7336 16.278C88.769 17.8083 88.3936 19.32 87.6466 20.656C86.9477 21.8791 85.9105 22.8743 84.6596 23.522C83.3271 24.2004 81.8486 24.5417 80.3536 24.516C78.8544 24.5395 77.3711 24.1976 76.0336 23.52ZM112.379 22.642C111.219 21.216 110.635 19.4079 110.741 17.573V8.242H115.67V16.968C115.611 17.8966 115.918 18.8113 116.525 19.517C116.822 19.822 117.181 20.0606 117.577 20.2169C117.974 20.3733 118.399 20.4438 118.825 20.424C119.266 20.4466 119.707 20.3734 120.118 20.2094C120.528 20.0454 120.898 19.7946 121.203 19.474C121.825 18.7146 122.136 17.7469 122.072 16.767V8.242H127.06V24.312H122.078V21.4C121.619 22.3342 120.899 23.1147 120.005 23.646C119.036 24.2159 117.928 24.5051 116.805 24.481C115.977 24.5197 115.151 24.3749 114.386 24.057C113.621 23.739 112.935 23.2559 112.379 22.642ZM160.235 24.312V3H165.193V24.312H160.235ZM155.219 24.312C153.622 24.4098 152.046 23.9108 150.797 22.912C149.743 21.9787 149.216 20.438 149.217 18.29V12.39H147.043V8.242H149.217V4.3H154.175V8.242H157.427V12.389H154.18V18.379C154.154 18.6148 154.176 18.8532 154.243 19.0806C154.311 19.308 154.422 19.5199 154.572 19.704C154.949 19.9902 155.42 20.1237 155.891 20.078H157.456V24.312H155.219ZM60.1736 24.312V8.242H65.1316V11.266C65.73 10.3065 66.5517 9.50608 67.5266 8.933C68.4862 8.36144 69.5836 8.0627 70.7006 8.069V13.339H69.2806C68.1967 13.2722 67.1212 13.5658 66.2216 14.174C65.8305 14.5262 65.5281 14.9657 65.3389 15.4567C65.1497 15.9477 65.079 16.4765 65.1326 17V24.315L60.1736 24.312ZM42.2266 24.312V3.95H50.2586C52.2774 3.80806 54.2728 4.45313 55.8266 5.75C56.4707 6.37677 56.9743 7.13331 57.304 7.96945C57.6336 8.8056 57.7817 9.70226 57.7386 10.6C57.7597 11.7841 57.4642 12.9524 56.8826 13.984C56.2876 14.9966 55.4043 15.8088 54.3456 16.317C53.0685 16.9173 51.6681 17.2085 50.2576 17.167H47.1846V24.309L42.2266 24.312Z" fill="#173A56"/>
<path d="M23.162 0H7C3.13401 0 0 3.13401 0 7V23C0 26.866 3.13401 30 7 30H23.162C27.028 30 30.162 26.866 30.162 23V7C30.162 3.13401 27.028 0 23.162 0Z" fill="#D8D8D8"/>
<rect x="41" width="144" height="35" fill="white"/>
<g filter="url(#filter0_d_239_32)">
<path d="M41.28 5.08C43.024 5.064 44.72 5.144 46.368 5.32C46.4 5.848 46.408 6.456 46.392 7.144C46.392 7.832 46.352 8.464 46.272 9.04C45.968 8.976 45.592 8.952 45.144 8.968C44.696 8.984 44.096 9.008 43.344 9.04H43.296H43.272C43.272 9.056 43.264 9.072 43.248 9.088C43.248 9.088 43.248 9.096 43.248 9.112C43.232 9.192 43.216 9.32 43.2 9.496C43.2 9.656 43.2 9.92 43.2 10.288C43.2 10.64 43.2 11.112 43.2 11.704C43.216 12.28 43.232 13.032 43.248 13.96C43.264 14.872 43.28 15.976 43.296 17.272C43.312 18.552 43.336 20.064 43.368 21.808V21.832V21.856C43.08 21.904 42.76 21.936 42.408 21.952C42.072 21.952 41.728 21.952 41.376 21.952C41.04 21.952 40.704 21.952 40.368 21.952C40.032 21.952 39.72 21.976 39.432 22.024C39.416 21.96 39.416 21.672 39.432 21.16C39.448 20.648 39.456 19.888 39.456 18.88C39.472 17.856 39.464 16.552 39.432 14.968C39.416 13.384 39.36 11.472 39.264 9.232L39.24 9.208C39.048 9.112 38.808 9.056 38.52 9.04C38.232 9.008 37.944 8.992 37.656 8.992C37.368 8.976 37.104 8.968 36.864 8.968C36.624 8.968 36.456 8.952 36.36 8.92C36.328 8.856 36.296 8.696 36.264 8.44C36.248 8.184 36.232 7.88 36.216 7.528C36.216 7.16 36.216 6.768 36.216 6.352C36.216 5.936 36.232 5.536 36.264 5.152C36.264 5.136 36.256 5.128 36.24 5.128C36.24 5.128 36.24 5.12 36.24 5.104C37.872 5.088 39.552 5.08 41.28 5.08ZM46.2156 11.776C46.3116 11.472 46.3836 11.232 46.4316 11.056C46.5436 10.816 46.7196 10.608 46.9596 10.432C47.2156 10.256 47.5036 10.112 47.8236 10C48.1596 9.872 48.5116 9.784 48.8796 9.736C49.2636 9.688 49.6476 9.664 50.0316 9.664C50.3516 9.696 50.6556 9.704 50.9436 9.688C51.2476 9.656 51.5676 9.656 51.9036 9.688C52.4156 9.72 52.9036 9.824 53.3676 10C53.8316 10.16 54.2316 10.4 54.5676 10.72C54.7916 10.864 54.9676 11.096 55.0956 11.416C55.2236 11.736 55.3196 12.112 55.3836 12.544C55.4476 12.96 55.4876 13.424 55.5036 13.936C55.5196 14.432 55.5356 14.944 55.5516 15.472C55.5356 15.936 55.5116 16.464 55.4796 17.056C55.4636 17.648 55.4236 18.216 55.3596 18.76C55.3116 19.304 55.2396 19.792 55.1436 20.224C55.0636 20.656 54.9436 20.952 54.7836 21.112C54.5116 21.496 54.1516 21.768 53.7036 21.928C53.2716 22.088 52.7996 22.184 52.2876 22.216C51.7756 22.264 51.2476 22.264 50.7036 22.216C50.1596 22.184 49.6636 22.168 49.2156 22.168C48.3996 22.024 47.7116 21.672 47.1516 21.112C46.7196 20.728 46.4236 20.248 46.2636 19.672C46.1036 19.096 46.0076 18.496 45.9756 17.872C45.9436 17.232 45.9356 16.592 45.9516 15.952C45.9836 15.312 45.9756 14.728 45.9276 14.2C45.9276 13.912 45.9356 13.632 45.9516 13.36C45.9676 13.072 45.9996 12.776 46.0476 12.472C46.0636 12.296 46.1196 12.064 46.2156 11.776ZM50.2476 13.36C49.9116 13.456 49.6396 13.632 49.4316 13.888C49.3356 13.952 49.2636 14.112 49.2156 14.368C49.1516 14.88 49.1196 15.392 49.1196 15.904C49.1196 16.4 49.1036 16.928 49.0716 17.488C49.0556 17.856 49.1516 18.144 49.3596 18.352C49.5676 18.544 49.8156 18.68 50.1036 18.76C50.4076 18.824 50.7196 18.84 51.0396 18.808C51.3596 18.76 51.6236 18.68 51.8316 18.568C52.1036 18.44 52.2876 18.176 52.3836 17.776C52.4476 17.264 52.4956 16.752 52.5276 16.24C52.5756 15.712 52.5516 15.216 52.4556 14.752C52.3756 14.192 52.1436 13.784 51.7596 13.528C51.3756 13.272 50.8716 13.216 50.2476 13.36ZM59.5654 4.528C59.8374 4.528 60.0774 4.544 60.2854 4.576V9.832C60.2854 10.36 60.2694 10.92 60.2374 11.512C60.2214 12.104 60.2374 12.584 60.2854 12.952C60.5574 12.712 60.7894 12.448 60.9814 12.16C61.1894 11.872 61.3814 11.584 61.5574 11.296C61.7334 10.992 61.9094 10.688 62.0854 10.384C62.2774 10.08 62.4934 9.792 62.7334 9.52C62.9414 9.6 63.2134 9.648 63.5494 9.664C63.8854 9.664 64.2294 9.664 64.5814 9.664C64.9494 9.648 65.3094 9.632 65.6614 9.616C66.0134 9.584 66.3014 9.576 66.5254 9.592C65.9334 10.504 65.2934 11.408 64.6054 12.304C63.9174 13.184 63.2374 14.072 62.5654 14.968C63.2854 16.136 64.0054 17.296 64.7254 18.448C65.4614 19.584 66.1334 20.768 66.7414 22C66.5174 22 66.2294 22.008 65.8774 22.024C65.5414 22.056 65.1894 22.08 64.8214 22.096C64.4534 22.112 64.0934 22.112 63.7414 22.096C63.4054 22.08 63.1174 22.048 62.8774 22C62.6374 21.616 62.4134 21.224 62.2054 20.824C62.0134 20.424 61.8214 20.032 61.6294 19.648C61.4374 19.248 61.2294 18.856 61.0054 18.472C60.7974 18.088 60.5574 17.72 60.2854 17.368C60.2854 17.656 60.2934 17.992 60.3094 18.376C60.3254 18.76 60.3334 19.16 60.3334 19.576C60.3334 19.992 60.3254 20.416 60.3094 20.848C60.2934 21.264 60.2534 21.648 60.1894 22C60.0134 21.984 59.7894 21.984 59.5174 22C59.2614 22 58.9894 22.008 58.7014 22.024C58.4134 22.04 58.1174 22.048 57.8134 22.048C57.5254 22.048 57.2614 22.032 57.0214 22C56.9094 19.024 56.8854 16.104 56.9494 13.24C57.0134 10.376 57.0374 7.488 57.0214 4.576C57.2614 4.576 57.5254 4.576 57.8134 4.576C58.1174 4.56 58.4134 4.552 58.7014 4.552C59.0054 4.536 59.2934 4.528 59.5654 4.528ZM66.8874 11.776C66.9834 11.472 67.0554 11.232 67.1034 11.056C67.2154 10.816 67.3914 10.608 67.6314 10.432C67.8874 10.256 68.1754 10.112 68.4954 10C68.8314 9.872 69.1834 9.784 69.5514 9.736C69.9354 9.688 70.3194 9.664 70.7034 9.664C71.0234 9.696 71.3274 9.704 71.6154 9.688C71.9194 9.656 72.2394 9.656 72.5754 9.688C73.0874 9.72 73.5754 9.824 74.0394 10C74.5034 10.16 74.9034 10.4 75.2394 10.72C75.4634 10.864 75.6394 11.096 75.7674 11.416C75.8954 11.736 75.9914 12.112 76.0554 12.544C76.1194 12.96 76.1594 13.424 76.1754 13.936C76.1914 14.432 76.2074 14.944 76.2234 15.472C76.2074 15.936 76.1834 16.464 76.1514 17.056C76.1354 17.648 76.0954 18.216 76.0314 18.76C75.9834 19.304 75.9114 19.792 75.8154 20.224C75.7354 20.656 75.6154 20.952 75.4554 21.112C75.1834 21.496 74.8234 21.768 74.3754 21.928C73.9434 22.088 73.4714 22.184 72.9594 22.216C72.4474 22.264 71.9194 22.264 71.3754 22.216C70.8314 22.184 70.3354 22.168 69.8874 22.168C69.0714 22.024 68.3834 21.672 67.8234 21.112C67.3914 20.728 67.0954 20.248 66.9354 19.672C66.7754 19.096 66.6794 18.496 66.6474 17.872C66.6154 17.232 66.6074 16.592 66.6234 15.952C66.6554 15.312 66.6474 14.728 66.5994 14.2C66.5994 13.912 66.6074 13.632 66.6234 13.36C66.6394 13.072 66.6714 12.776 66.7194 12.472C66.7354 12.296 66.7914 12.064 66.8874 11.776ZM70.9194 13.36C70.5834 13.456 70.3114 13.632 70.1034 13.888C70.0074 13.952 69.9354 14.112 69.8874 14.368C69.8234 14.88 69.7914 15.392 69.7914 15.904C69.7914 16.4 69.7754 16.928 69.7434 17.488C69.7274 17.856 69.8234 18.144 70.0314 18.352C70.2394 18.544 70.4874 18.68 70.7754 18.76C71.0794 18.824 71.3914 18.84 71.7114 18.808C72.0314 18.76 72.2954 18.68 72.5034 18.568C72.7754 18.44 72.9594 18.176 73.0554 17.776C73.1194 17.264 73.1674 16.752 73.1994 16.24C73.2474 15.712 73.2234 15.216 73.1274 14.752C73.0474 14.192 72.8154 13.784 72.4314 13.528C72.0474 13.272 71.5434 13.216 70.9194 13.36ZM90.8979 13.816C90.9299 13.88 90.9859 13.96 91.0659 14.056C91.3219 14.376 91.5619 14.696 91.7859 15.016C92.0259 15.32 92.2259 15.648 92.3859 16C92.5619 16.336 92.6819 16.712 92.7459 17.128C92.8099 17.544 92.7939 18.008 92.6979 18.52C92.5699 19.272 92.3219 19.888 91.9539 20.368C91.6019 20.832 91.1699 21.192 90.6579 21.448C90.1459 21.704 89.5779 21.88 88.9539 21.976C88.3299 22.056 87.6819 22.096 87.0099 22.096C86.3539 22.112 85.6899 22.096 85.0179 22.048C84.3619 22 83.7459 21.968 83.1699 21.952C83.0739 21.952 82.9779 21.952 82.8819 21.952C82.8019 21.952 82.7219 21.936 82.6419 21.904C82.5459 19.136 82.5219 16.392 82.5699 13.672C82.6179 10.936 82.6179 8.176 82.5699 5.392L82.5939 5.368C83.2339 5.192 83.9139 5.056 84.6339 4.96C85.3539 4.864 86.0659 4.832 86.7699 4.864C87.4739 4.896 88.1459 5 88.7859 5.176C89.4419 5.352 90.0179 5.64 90.5139 6.04C91.0099 6.424 91.4019 6.928 91.6899 7.552C91.9779 8.16 92.1219 8.912 92.1219 9.808C92.1219 10.48 92.0019 11.136 91.7619 11.776C91.5379 12.416 91.2659 13.008 90.9459 13.552C90.8819 13.664 90.8659 13.752 90.8979 13.816ZM88.2339 18.472C88.4579 18.376 88.6499 18.232 88.8099 18.04C88.9859 17.8 89.0659 17.512 89.0499 17.176C89.0499 16.84 88.9939 16.536 88.8819 16.264C88.7859 16.072 88.6419 15.904 88.4499 15.76C88.2579 15.6 88.0579 15.496 87.8499 15.448C87.5459 15.368 87.2339 15.328 86.9139 15.328C86.5939 15.312 86.2819 15.288 85.9779 15.256C85.9139 15.496 85.8579 15.768 85.8099 16.072C85.7619 16.376 85.7299 16.688 85.7139 17.008C85.7139 17.312 85.7379 17.608 85.7859 17.896C85.8339 18.184 85.9219 18.424 86.0499 18.616L86.0979 18.64C86.3219 18.64 86.5539 18.648 86.7939 18.664C87.0499 18.664 87.2979 18.656 87.5379 18.64C87.7939 18.608 88.0259 18.552 88.2339 18.472ZM88.2579 11.752C88.4819 11.624 88.6579 11.44 88.7859 11.2C88.8979 11.008 88.9939 10.784 89.0739 10.528C89.1539 10.272 89.1299 10.016 89.0019 9.76C88.8739 9.504 88.7059 9.312 88.4979 9.184C88.3059 9.04 88.0819 8.936 87.8259 8.872C87.5059 8.808 87.1619 8.776 86.7939 8.776C86.4419 8.76 86.1459 8.816 85.9059 8.944C85.9379 9.312 85.9219 9.76 85.8579 10.288C85.8099 10.816 85.8579 11.36 86.0019 11.92C86.2419 11.952 86.4979 11.976 86.7699 11.992C87.0419 12.008 87.3059 12 87.5619 11.968C87.8179 11.936 88.0499 11.864 88.2579 11.752ZM99.7674 21.304C99.7834 21.128 99.7834 20.928 99.7674 20.704C99.6874 20.752 99.5834 20.808 99.4554 20.872C99.3434 20.936 99.2474 21 99.1674 21.064C98.8314 21.304 98.4554 21.496 98.0394 21.64C97.6234 21.784 97.1914 21.864 96.7434 21.88C96.3114 21.896 95.8874 21.848 95.4714 21.736C95.0554 21.624 94.6794 21.424 94.3434 21.136C94.1834 20.992 94.0554 20.696 93.9594 20.248C93.8794 19.784 93.8234 19.232 93.7914 18.592C93.7754 17.952 93.7674 17.256 93.7674 16.504C93.7834 15.736 93.7994 14.968 93.8154 14.2C93.8314 13.416 93.8474 12.664 93.8634 11.944C93.8794 11.224 93.8714 10.592 93.8394 10.048C94.3994 9.968 94.8954 9.936 95.3274 9.952C95.7754 9.952 96.2794 9.952 96.8394 9.952C96.8714 10.32 96.8874 10.736 96.8874 11.2C96.8874 11.664 96.8794 12.144 96.8634 12.64C96.8634 13.136 96.8634 13.632 96.8634 14.128C96.8794 14.624 96.9034 15.088 96.9354 15.52C96.9514 15.712 96.9674 15.928 96.9834 16.168C96.9994 16.392 97.0234 16.616 97.0554 16.84C97.1034 17.064 97.1594 17.264 97.2234 17.44C97.3034 17.616 97.4074 17.752 97.5354 17.848C97.5514 17.864 97.5674 17.872 97.5834 17.872C97.5994 17.872 97.6154 17.88 97.6314 17.896C97.7594 17.96 97.9434 18.016 98.1834 18.064C98.4394 18.096 98.6874 18.08 98.9274 18.016C99.1674 17.936 99.3834 17.792 99.5754 17.584C99.7674 17.36 99.8794 17.032 99.9114 16.6C99.9434 16.056 99.9514 15.512 99.9354 14.968C99.9194 14.424 99.8954 13.888 99.8634 13.36C99.8474 12.816 99.8314 12.28 99.8154 11.752C99.8154 11.224 99.8554 10.696 99.9354 10.168V10.072C100.207 9.992 100.439 9.944 100.631 9.928C100.839 9.912 101.047 9.912 101.255 9.928C101.463 9.928 101.695 9.936 101.951 9.952C102.207 9.968 102.527 9.96 102.911 9.928C102.911 11.896 102.927 13.864 102.959 15.832C103.007 17.8 102.999 19.84 102.935 21.952C102.743 21.936 102.583 21.928 102.455 21.928C102.327 21.912 102.207 21.904 102.095 21.904C101.983 21.904 101.863 21.912 101.735 21.928C101.607 21.928 101.447 21.936 101.255 21.952C101.191 21.952 101.079 21.968 100.919 22C100.759 22.016 100.599 22.032 100.439 22.048C100.279 22.064 100.135 22.064 100.007 22.048C99.8794 22.048 99.8154 22.024 99.8154 21.976C99.7834 21.704 99.7674 21.48 99.7674 21.304ZM107.284 4.528C107.556 4.528 107.796 4.544 108.004 4.576V9.832C108.004 10.36 107.988 10.92 107.956 11.512C107.94 12.104 107.956 12.584 108.004 12.952C108.276 12.712 108.508 12.448 108.7 12.16C108.908 11.872 109.1 11.584 109.276 11.296C109.452 10.992 109.628 10.688 109.804 10.384C109.996 10.08 110.212 9.792 110.452 9.52C110.66 9.6 110.932 9.648 111.268 9.664C111.604 9.664 111.948 9.664 112.3 9.664C112.668 9.648 113.028 9.632 113.38 9.616C113.732 9.584 114.02 9.576 114.244 9.592C113.652 10.504 113.012 11.408 112.324 12.304C111.636 13.184 110.956 14.072 110.284 14.968C111.004 16.136 111.724 17.296 112.444 18.448C113.18 19.584 113.852 20.768 114.46 22C114.236 22 113.948 22.008 113.596 22.024C113.26 22.056 112.908 22.08 112.54 22.096C112.172 22.112 111.812 22.112 111.46 22.096C111.124 22.08 110.836 22.048 110.596 22C110.356 21.616 110.132 21.224 109.924 20.824C109.732 20.424 109.54 20.032 109.348 19.648C109.156 19.248 108.948 18.856 108.724 18.472C108.516 18.088 108.276 17.72 108.004 17.368C108.004 17.656 108.012 17.992 108.028 18.376C108.044 18.76 108.052 19.16 108.052 19.576C108.052 19.992 108.044 20.416 108.028 20.848C108.012 21.264 107.972 21.648 107.908 22C107.732 21.984 107.508 21.984 107.236 22C106.98 22 106.708 22.008 106.42 22.024C106.132 22.04 105.836 22.048 105.532 22.048C105.244 22.048 104.98 22.032 104.74 22C104.628 19.024 104.604 16.104 104.668 13.24C104.732 10.376 104.756 7.488 104.74 4.576C104.98 4.576 105.244 4.576 105.532 4.576C105.836 4.56 106.132 4.552 106.42 4.552C106.724 4.536 107.012 4.528 107.284 4.528ZM118.137 16.048C117.785 16.032 117.529 16.008 117.369 15.976V16.408C117.385 16.888 117.401 17.28 117.417 17.584C117.449 17.888 117.553 18.184 117.729 18.472C117.921 18.84 118.193 19.112 118.545 19.288C118.897 19.464 119.241 19.52 119.577 19.456C119.913 19.392 120.193 19.2 120.417 18.88C120.657 18.544 120.761 18.048 120.729 17.392C120.889 17.408 121.105 17.416 121.377 17.416C121.649 17.4 121.929 17.384 122.217 17.368C122.521 17.352 122.809 17.352 123.081 17.368C123.353 17.368 123.577 17.392 123.753 17.44C123.721 17.856 123.689 18.264 123.657 18.664C123.625 19.064 123.585 19.44 123.537 19.792C123.489 20.128 123.425 20.424 123.345 20.68C123.281 20.92 123.193 21.088 123.081 21.184C122.809 21.568 122.457 21.84 122.025 22C121.593 22.16 121.121 22.256 120.609 22.288C120.097 22.32 119.569 22.32 119.025 22.288C118.497 22.256 118.009 22.24 117.561 22.24C117.113 22.176 116.697 22.032 116.313 21.808C115.881 21.504 115.521 21.112 115.233 20.632C114.945 20.136 114.713 19.6 114.537 19.024C114.361 18.432 114.241 17.808 114.177 17.152C114.113 16.496 114.097 15.84 114.129 15.184C114.177 14.592 114.225 14.024 114.273 13.48C114.337 12.92 114.465 12.376 114.657 11.848C114.865 11.384 115.185 10.992 115.617 10.672C116.049 10.336 116.537 10.088 117.081 9.928C117.625 9.752 118.201 9.656 118.809 9.64C119.417 9.624 120.009 9.688 120.585 9.832C121.321 9.96 121.913 10.216 122.361 10.6C122.809 10.984 123.145 11.448 123.369 11.992C123.609 12.536 123.753 13.136 123.801 13.792C123.849 14.448 123.849 15.112 123.801 15.784C123.689 15.816 123.473 15.848 123.153 15.88C122.849 15.912 122.481 15.944 122.049 15.976C121.633 16.008 121.185 16.032 120.705 16.048C120.225 16.064 119.761 16.072 119.313 16.072C118.881 16.072 118.489 16.064 118.137 16.048ZM120.945 12.904C120.785 12.616 120.561 12.4 120.273 12.256C120.145 12.176 120.017 12.12 119.889 12.088C119.761 12.04 119.609 12.016 119.433 12.016C119.049 12.016 118.737 12.056 118.497 12.136C118.257 12.216 118.065 12.328 117.921 12.472C117.777 12.616 117.665 12.784 117.585 12.976C117.521 13.168 117.473 13.368 117.441 13.576C117.409 13.752 117.393 13.88 117.393 13.96C117.409 14.024 117.489 14.072 117.633 14.104C117.777 14.12 118.001 14.128 118.305 14.128C118.625 14.112 119.089 14.104 119.697 14.104C120.113 14.104 120.425 14.112 120.633 14.128C120.841 14.144 120.985 14.152 121.065 14.152C121.161 14.136 121.209 14.112 121.209 14.08C121.209 14.032 121.209 13.944 121.209 13.816C121.209 13.496 121.121 13.192 120.945 12.904ZM128.539 5.608C128.811 5.624 129.083 5.616 129.355 5.584V8.8C129.355 9.008 129.355 9.224 129.355 9.448C129.371 9.672 129.379 9.904 129.379 10.144C129.875 10.128 130.395 10.104 130.939 10.072C131.499 10.04 132.187 10 133.003 9.952C133.115 10.08 133.179 10.272 133.195 10.528C133.211 10.768 133.211 11.032 133.195 11.32C133.179 11.608 133.155 11.904 133.123 12.208C133.107 12.496 133.115 12.744 133.147 12.952H129.427C129.427 13.816 129.427 14.664 129.427 15.496C129.427 16.312 129.435 17.08 129.451 17.8C129.611 18.024 129.843 18.2 130.147 18.328C130.451 18.456 130.779 18.56 131.131 18.64C131.483 18.704 131.835 18.744 132.187 18.76C132.555 18.776 132.875 18.776 133.147 18.76C133.179 18.984 133.211 19.232 133.243 19.504C133.275 19.776 133.299 20.056 133.315 20.344C133.331 20.632 133.323 20.92 133.291 21.208C133.275 21.496 133.227 21.76 133.147 22C132.507 22.032 131.843 22.032 131.155 22C130.467 21.952 129.819 21.856 129.211 21.712C128.603 21.568 128.059 21.352 127.579 21.064C127.115 20.776 126.779 20.384 126.571 19.888C126.363 18.656 126.243 17.496 126.211 16.408C126.179 15.304 126.171 14.168 126.187 13C125.931 13.016 125.659 13.024 125.371 13.024C125.099 13.024 124.795 13.024 124.459 13.024L124.531 10.096C124.851 10.112 125.147 10.12 125.419 10.12C125.707 10.12 125.979 10.12 126.235 10.12C126.235 9.768 126.227 9.392 126.211 8.992C126.195 8.576 126.187 8.16 126.187 7.744C126.187 7.328 126.187 6.928 126.187 6.544C126.203 6.16 126.227 5.816 126.259 5.512C126.467 5.48 126.691 5.472 126.931 5.488C127.187 5.504 127.451 5.528 127.723 5.56C127.995 5.576 128.267 5.592 128.539 5.608Z" fill="#173A56"/>
</g>
</g>
<defs>
<filter id="filter0_d_239_32" x="32.2158" y="4.52783" width="105.123" height="25.8081" filterUnits="userSpaceOnUse" color-interpolation-filters="sRGB">
<feFlood flood-opacity="0" result="BackgroundImageFix"/>
<feColorMatrix in="SourceAlpha" type="matrix" values="0 0 0 0 0 0 0 0 0 0 0 0 0 0 0 0 0 0 127 0" result="hardAlpha"/>
<feOffset dy="4"/>
<feGaussianBlur stdDeviation="2"/>
<feComposite in2="hardAlpha" operator="out"/>
<feColorMatrix type="matrix" values="0 0 0 0 0 0 0 0 0 0 0 0 0 0 0 0 0 0 0.25 0"/>
<feBlend mode="normal" in2="BackgroundImageFix" result="effect1_dropShadow_239_32"/>
<feBlend mode="normal" in="SourceGraphic" in2="effect1_dropShadow_239_32" result="shape"/>
</filter>
<clipPath id="clip0_239_32">
<rect width="185.344" height="31.973" fill="white"/>
</clipPath>
</defs>
</svg>
